<svg width="80" height="80" viewBox="0 0 80 80" fill="none" xmlns="http://www.w3.org/2000/svg">
<path d="M40 80C62.0914 80 80 62.0914 80 40C80 17.9086 62.0914 0 40 0C17.9086 0 0 17.9086 0 40C0 62.0914 17.9086 80 40 80Z" fill="black"/>
<path d="M36.64 33.5176C36.3391 35.1509 36.0535 38.2764 36.0535 39.9376C36.0535 41.5987 36.129 44.7778 36.64 46.3576M36.64 33.5176L39.9772 30.5936C44.1279 26.9568 46.2032 25.1384 47.9762 25.4916C48.5276 25.6014 49.0464 25.8366 49.4925 26.179C50.9265 27.2798 50.9265 30.039 50.9265 35.5576V44.2794C50.9265 49.7168 50.9265 52.4356 49.5059 53.5365C49.064 53.8789 48.5485 54.1162 48.001 54.2292C46.2408 54.5925 44.1769 52.8257 40.0491 49.2922C38.1531 47.6692 36.7441 46.4588 36.64 46.3576M36.64 33.5176C35.9098 33.4665 32.6293 33.4655 29.4733 33.4777C26.8581 33.4879 25.5505 33.4929 24.6135 34.1439C24.2521 34.3951 23.9362 34.7122 23.6864 35.0746C23.0391 36.0141 23.0391 37.3268 23.0391 39.9522C23.0391 42.5899 23.0391 43.9088 23.6904 44.8502C23.9416 45.2133 24.2592 45.5306 24.6226 45.7815C25.5647 46.4318 26.8787 46.4305 29.5068 46.4278C32.6525 46.4246 35.9124 46.4085 36.64 46.3576M26.7579 46.4203L26.7175 55.8253C26.711 57.346 27.9423 58.582 29.463 58.5812C30.9779 58.5804 32.2056 57.3521 32.2056 55.8371V46.4212M54.6447 32.4657C56.5038 38.0696 56.5038 41.8055 54.6447 47.4095" stroke="white" stroke-width="1.5" stroke-linecap="round" stroke-linejoin="round"/>
</svg>
