<svg width="50" height="50" viewBox="0 0 50 50" fill="none" xmlns="http://www.w3.org/2000/svg">
<circle cx="25" cy="25" r="25" fill="black"/>
<path d="M12 25.4167C12 22.181 12 20.5631 12.5286 19.2869C13.2334 17.5854 14.5853 16.2334 16.2869 15.5286C17.5631 15 19.181 15 22.4167 15H26.5833C29.819 15 31.4369 15 32.7131 15.5286C34.4147 16.2334 35.7666 17.5854 36.4714 19.2869C37 20.5631 37 22.181 37 25.4167C37 28.6524 37 30.2702 36.4714 31.5464C35.7666 33.248 34.4147 34.5999 32.7131 35.3047C31.4369 35.8333 29.819 35.8333 26.5833 35.8333H22.4167C19.181 35.8333 17.5631 35.8333 16.2869 35.3047C14.5853 34.5999 13.2334 33.248 12.5286 31.5464C12 30.2702 12 28.6524 12 25.4167Z" stroke="#FBFBFB" stroke-width="1.10262" stroke-linejoin="round"/>
<path d="M12 19.8613L16.8262 23.6149C20.0896 26.1529 21.7212 27.422 23.5851 27.6698C24.1927 27.7506 24.8084 27.7506 25.416 27.6697C27.2798 27.4218 28.9115 26.1527 32.1747 23.6145L37 19.8613" stroke="#FBFBFB" stroke-width="1.10262" stroke-linejoin="round"/>
</svg>
