<svg width="80" height="80" viewBox="0 0 80 80" fill="none" xmlns="http://www.w3.org/2000/svg">
<path fill-rule="evenodd" clip-rule="evenodd" d="M79.9998 39.9999C79.9998 17.9086 62.0913 0 39.9999 0C17.9086 0 0 17.9085 0 39.9999C0 62.0913 17.9085 79.9999 39.9999 79.9999C62.0913 79.9999 79.9998 62.0913 79.9998 39.9999Z" fill="#0C0C0C"/>
<path d="M38.3919 28.4324L31.6293 30.2121C30.8341 30.4213 30.4366 30.5259 30.1346 30.77C30.0353 30.8503 29.9448 30.9407 29.8646 31.04C29.6205 31.342 29.5159 31.7395 29.3067 32.5347L25.4885 47.0436C24.513 50.7507 24.0252 52.6043 24.791 53.7812C25.0321 54.1518 25.3482 54.4679 25.7188 54.709C26.8957 55.4748 28.7493 54.987 32.4564 54.0115L46.9653 50.1933C47.7605 49.9841 48.158 49.8795 48.46 49.6354C48.5593 49.5552 48.6497 49.4647 48.73 49.3654C48.9741 49.0634 49.0787 48.6659 49.2879 47.8707L51.0676 41.1081M38.3919 28.4324L51.0676 41.1081M38.3919 28.4324L41.5195 25.3048C42.4798 24.3445 42.9599 23.8644 43.5411 23.7724C43.7287 23.7426 43.9199 23.7426 44.1076 23.7724C44.6887 23.8644 45.1689 24.3445 46.1291 25.3048L54.1952 33.3709C55.1555 34.3311 55.6356 34.8113 55.7276 35.3924C55.7574 35.5801 55.7574 35.7713 55.7276 35.9589C55.6356 36.5401 55.1555 37.0202 54.1952 37.9805L51.0676 41.1081" stroke="#FBFBFB" stroke-width="1.7633" stroke-linecap="round" stroke-linejoin="round"/>
<path d="M35.9018 43.6062C34.5892 42.2936 34.5892 40.1655 35.9018 38.8529C37.2144 37.5403 39.3426 37.5403 40.6552 38.8529C41.9678 40.1655 41.9678 42.2936 40.6552 43.6062C39.3426 44.9189 37.2144 44.9189 35.9018 43.6062ZM35.9018 43.6062L31.1484 48.3596" stroke="#FBFBFB" stroke-width="2.71622" stroke-linecap="round" stroke-linejoin="round"/>
</svg>
