<svg width="50" height="50" viewBox="0 0 50 50" fill="none" xmlns="http://www.w3.org/2000/svg">
<circle cx="25" cy="25" r="24.75" fill="black" stroke="#FBFBFB" stroke-width="0.5"/>
<path d="M15.2237 15.2233L14.8703 14.8696V14.8696L15.2237 15.2233ZM21.1325 15.2233L21.486 14.8696L21.1325 15.2233ZM21.1325 21.1297L20.779 20.7761V20.7761L21.1325 21.1297ZM28.3075 28.3019L27.954 27.9483V27.9483L28.3075 28.3019ZM34.2163 34.2084L33.8628 33.8547V33.8547L34.2163 34.2084ZM19.4443 29.9895L19.0908 30.3431L19.4443 29.9895ZM14.0221 18.607L14.5221 18.6042C14.522 18.588 14.5211 18.5719 14.5195 18.5558L14.0221 18.607ZM30.8312 35.4095L30.8824 34.9121C30.8663 34.9105 30.8502 34.9096 30.834 34.9095L30.8312 35.4095ZM18.8414 22.3004L18.7625 21.8066C18.6025 21.8322 18.4649 21.9337 18.3931 22.0789C18.3214 22.2241 18.3244 22.3951 18.4013 22.5377L18.8414 22.3004ZM27.1364 30.5921L26.8992 31.0323C27.0418 31.1091 27.2127 31.1121 27.3579 31.0404C27.5031 30.9686 27.6045 30.831 27.6301 30.6711L27.1364 30.5921ZM15.2237 15.2233L15.5772 15.5769C17.0137 14.141 19.3426 14.141 20.779 15.5769L21.1325 15.2233L21.486 14.8696C19.6591 13.0435 16.6972 13.0435 14.8703 14.8696L15.2237 15.2233ZM21.1325 15.2233L20.779 15.5769C22.2154 17.0126 22.2154 19.3404 20.779 20.7761L21.1325 21.1297L21.486 21.4834C23.313 19.6571 23.313 16.696 21.486 14.8696L21.1325 15.2233ZM28.3075 28.3019L28.661 28.6555C30.0974 27.2197 32.4263 27.2197 33.8628 28.6555L34.2163 28.3019L34.5697 27.9483C32.7428 26.1221 29.7809 26.1221 27.954 27.9483L28.3075 28.3019ZM34.2163 28.3019L33.8628 28.6555C35.2991 30.0913 35.2991 32.419 33.8628 33.8547L34.2163 34.2084L34.5697 34.562C36.3968 32.7357 36.3968 29.7746 34.5697 27.9483L34.2163 28.3019ZM19.4443 29.9895L19.7978 29.6358C16.3686 26.208 14.5417 22.0611 14.5221 18.6042L14.0221 18.607L13.5221 18.6099C13.5436 22.3877 15.5206 26.7742 19.0908 30.3431L19.4443 29.9895ZM14.0221 18.607L14.5195 18.5558C14.4098 17.4917 14.7626 16.3912 15.5772 15.5769L15.2237 15.2233L14.8703 14.8696C13.8338 15.9057 13.3855 17.3076 13.5248 18.6583L14.0221 18.607ZM34.2163 34.2084L33.8628 33.8547C33.0482 34.669 31.947 35.0218 30.8824 34.9121L30.8312 35.4095L30.7799 35.9069C32.131 36.046 33.5333 35.598 34.5697 34.562L34.2163 34.2084ZM30.8312 35.4095L30.834 34.9095C27.3755 34.8899 23.2269 33.0636 19.7978 29.6358L19.4443 29.9895L19.0908 30.3431C22.6611 33.912 27.0493 35.8881 30.8283 35.9095L30.8312 35.4095ZM21.1325 21.1297L20.779 20.7761C20.2094 21.3455 19.5008 21.6886 18.7625 21.8066L18.8414 22.3004L18.9203 22.7941C19.8596 22.6439 20.7625 22.2066 21.486 21.4834L21.1325 21.1297ZM22.3987 27.0362L22.7522 26.6826C21.3077 25.2387 20.1444 23.6634 19.2815 22.0631L18.8414 22.3004L18.4013 22.5377C19.3117 24.2262 20.5341 25.8793 22.0452 27.3898L22.3987 27.0362ZM27.1364 30.5921L27.6301 30.6711C27.7482 29.9332 28.0913 29.2249 28.661 28.6555L28.3075 28.3019L27.954 27.9483C27.2305 28.6715 26.7929 29.5741 26.6427 30.5132L27.1364 30.5921ZM27.1364 30.5921L27.3735 30.152C25.7725 29.2894 24.1966 28.1265 22.7522 26.6826L22.3987 27.0362L22.0452 27.3898C23.5563 28.9003 25.2101 30.1223 26.8992 31.0323L27.1364 30.5921Z" fill="#FBFBFB"/>
</svg>
